<svg width="80" height="65" viewBox="0 0 80 65" fill="none" xmlns="http://www.w3.org/2000/svg">
<path d="M48.9707 30.1927C53.136 34.3553 53.136 41.11 48.9707 45.2753L33.8853 60.3607C32.8453 61.4007 31.1547 61.4007 30.1147 60.3607L15.0293 45.2753C10.864 41.11 10.864 34.3553 15.0293 30.19C19.1947 26.0247 25.9493 26.0247 30.1147 30.19L31.9973 32.0753L33.8853 30.19C38.0507 26.0247 44.8053 26.0247 48.9707 30.19V30.1927ZM18.8 33.958C16.72 36.0407 16.72 39.4193 18.8 41.502L32 54.702L45.2 41.502C47.28 39.4193 47.28 36.0407 45.2 33.958C43.1173 31.878 39.7387 31.878 37.6533 33.9633L31.9947 39.6113L26.3413 33.958C24.2613 31.878 20.8827 31.878 18.8 33.958ZM32 3.57935C37.8933 3.57935 42.6667 8.35268 42.6667 14.246C42.6667 20.1393 37.8933 24.9127 32 24.9127C26.1067 24.9127 21.3333 20.1393 21.3333 14.246C21.3333 8.35268 26.1067 3.57935 32 3.57935ZM32 8.91268C29.0533 8.91268 26.6667 11.2993 26.6667 14.246C26.6667 17.1927 29.0533 19.5793 32 19.5793C34.9467 19.5793 37.3333 17.1927 37.3333 14.246C37.3333 11.2993 34.9467 8.91268 32 8.91268Z" fill="#606D83"/>
<g style="mix-blend-mode:multiply">
<circle cx="52" cy="36.9126" r="28" fill="#33CC99"/>
</g>
</svg>
