<svg width="66" height="77" viewBox="0 0 66 77" fill="none" xmlns="http://www.w3.org/2000/svg">
<g style="mix-blend-mode:multiply">
<path d="M13.3333 36.9126C14.0406 36.9126 14.7189 37.1935 15.2189 37.6936C15.719 38.1937 16 38.872 16 39.5792C20.1897 39.5731 24.2586 40.9826 27.5467 43.5792H33.3333C36.8853 43.5792 40.08 45.1232 42.2747 47.5766L50.6667 47.5792C53.1874 47.5785 55.6566 48.2924 57.7881 49.638C59.9196 50.9836 61.6259 52.9059 62.7093 55.1819C56.4027 63.5046 46.192 68.9126 34.6667 68.9126C27.2267 68.9126 20.9333 67.3046 15.84 64.4912C15.6534 65.006 15.3126 65.4508 14.864 65.7648C14.4154 66.0788 13.8809 66.2468 13.3333 66.2459H5.33333C4.62609 66.2459 3.94781 65.9649 3.44771 65.4648C2.94762 64.9647 2.66666 64.2865 2.66666 63.5792V39.5792C2.66666 38.872 2.94762 38.1937 3.44771 37.6936C3.94781 37.1935 4.62609 36.9126 5.33333 36.9126H13.3333ZM16.0027 44.9126L16 58.3019L16.12 58.3899C20.9067 61.7499 27.1413 63.5792 34.6667 63.5792C42.6773 63.5792 50.1307 60.4966 55.56 55.2326L55.9147 54.8779L55.5947 54.6112C54.3355 53.625 52.8091 53.0397 51.2133 52.9312L50.6667 52.9126L45.0347 52.9099C45.2293 53.7686 45.3333 54.6619 45.3333 55.5792V58.2459H21.3333V52.9126L39.44 52.9099L39.3493 52.7019C38.8383 51.634 38.0522 50.7214 37.0718 50.0578C36.0914 49.3942 34.952 49.0035 33.7707 48.9259L33.3333 48.9126H25.52C24.2808 47.6452 22.8007 46.6384 21.1667 45.9514C19.5327 45.2645 17.7778 44.9113 16.0053 44.9126H16.0027ZM10.6667 42.2459H8V60.9126H10.6667V42.2459ZM36.3893 22.4459L37.3333 23.3926L38.2773 22.4486C38.8955 21.8251 39.6307 21.33 40.4407 20.9914C41.2508 20.6529 42.1197 20.4777 42.9977 20.4759C43.8756 20.4741 44.7452 20.6458 45.5567 20.981C46.3681 21.3162 47.1053 21.8083 47.726 22.4292C48.3467 23.0501 48.8387 23.7875 49.1736 24.599C49.5086 25.4105 49.68 26.2802 49.6779 27.1581C49.6759 28.0361 49.5005 28.9049 49.1617 29.7149C48.823 30.5248 48.3276 31.2599 47.704 31.8779L37.3333 42.2459L26.96 31.8726C26.3366 31.2544 25.8414 30.5192 25.5029 29.7091C25.1644 28.8991 24.9892 28.0302 24.9874 27.1522C24.9856 26.2743 25.1572 25.4047 25.4924 24.5932C25.8276 23.7818 26.3198 23.0446 26.9407 22.4239C27.5615 21.8032 28.2989 21.3112 29.1104 20.9762C29.9219 20.6413 30.7916 20.4699 31.6696 20.4719C32.5475 20.474 33.4164 20.6494 34.2263 20.9882C35.0363 21.3269 35.7713 21.8223 36.3893 22.4459ZM30.736 26.2192C30.515 26.439 30.378 26.7293 30.3487 27.0396C30.3195 27.3499 30.3999 27.6607 30.576 27.9179L30.7307 28.1019L37.3333 34.6992L43.936 28.1019C44.1569 27.8813 44.2933 27.5902 44.3216 27.2793C44.3499 26.9684 44.2681 26.6574 44.0907 26.4006L43.936 26.2139C43.715 25.9934 43.4238 25.8575 43.1129 25.8297C42.802 25.8019 42.4912 25.8841 42.2347 26.0619L42.048 26.2166L37.3307 30.9312L32.6187 26.2112L32.4373 26.0619C32.1805 25.8844 31.8695 25.8027 31.5586 25.831C31.2477 25.8592 30.9566 25.9957 30.736 26.2166V26.2192Z" fill="#606D83"/>
</g>
<g style="mix-blend-mode:multiply">
<circle cx="38" cy="28.9126" r="28" fill="#33CC99"/>
</g>
</svg>
