<svg width="118" height="43" viewBox="0 0 118 43" fill="none" xmlns="http://www.w3.org/2000/svg">
<path d="M32.5532 37.269C32.3922 37.3093 32.191 37.3495 31.8892 37.3495C30.5613 37.3495 29.998 36.4844 29.998 35.2571C29.998 34.0901 30.4205 33.2854 31.4667 33.2854C32.5733 33.2854 32.7141 34.1505 32.7141 34.4925H32.191C32.191 34.07 31.9496 33.6878 31.4667 33.6878C30.7424 33.6878 30.501 34.4925 30.501 35.1967C30.501 36.2832 30.9637 36.9672 31.9697 36.9672C32.2916 36.9672 32.4324 36.927 32.5733 36.8867V37.269H32.5532Z" fill="#003B71"/>
<path d="M33.2975 35.3174C33.2975 34.1907 33.8005 33.2854 34.887 33.2854C35.9935 33.2854 36.4764 34.1907 36.4764 35.3174C36.4764 36.4441 35.9935 37.3294 34.887 37.3294C33.8005 37.3495 33.2975 36.4441 33.2975 35.3174ZM34.8669 36.9471C35.6918 36.9471 35.9734 36.263 35.9734 35.3577C35.9734 34.4523 35.6918 33.6676 34.8669 33.6676C34.042 33.6676 33.7804 34.4523 33.7804 35.3577C33.7804 36.2832 34.042 36.9471 34.8669 36.9471Z" fill="#003B71"/>
<path d="M37.5226 33.386H37.925V34.3316H37.9452C38.0659 33.9493 38.2872 33.2854 39.2328 33.2854C39.4541 33.2854 40.2388 33.4061 40.2388 34.3919V37.269H39.8364V34.8144C39.8364 34.4121 39.8364 33.6878 39.1523 33.6878C38.4683 33.6878 37.925 34.7138 37.925 35.7802V37.269H37.5226V33.386Z" fill="#003B71"/>
<path d="M41.5868 33.386H41.9892V34.3316H42.0093C42.13 33.9493 42.3513 33.2854 43.2969 33.2854C43.5183 33.2854 44.3029 33.4061 44.3029 34.3919V37.269H43.9005V34.8144C43.9005 34.4121 43.9005 33.6878 43.2165 33.6878C42.5324 33.6878 41.9892 34.7138 41.9892 35.7802V37.269H41.5868V33.386Z" fill="#003B71"/>
<path d="M48.0451 37.2489C47.8036 37.3093 47.522 37.3495 47.2 37.3495C46.013 37.3495 45.3491 36.585 45.3491 35.2168C45.3491 33.9292 45.8722 33.2854 46.8178 33.2854C47.7634 33.2854 48.1054 34.0298 48.1054 34.6736V34.8748H45.8319C45.8319 35.0156 45.8319 35.1364 45.8319 35.2772C45.8319 35.579 45.8319 36.9471 47.3208 36.9471C47.5421 36.9471 47.8439 36.9069 48.0249 36.8465V37.2489H48.0451ZM47.6226 34.4925C47.6226 34.2511 47.4616 33.6878 46.8178 33.6878C46.0935 33.6878 45.9526 34.2511 45.8923 34.4925H47.6226Z" fill="#003B71"/>
<path d="M51.405 37.269C51.2441 37.3093 51.0429 37.3495 50.7411 37.3495C49.4132 37.3495 48.8499 36.4844 48.8499 35.2571C48.8499 34.0901 49.2724 33.2854 50.3186 33.2854C51.4251 33.2854 51.566 34.1505 51.566 34.4925H51.0026C51.0026 34.07 50.7612 33.6878 50.2783 33.6878C49.554 33.6878 49.3126 34.4925 49.3126 35.1967C49.3126 36.2832 49.7955 36.9672 50.7813 36.9672C51.1032 36.9672 51.2441 36.927 51.3849 36.8867V37.269H51.405Z" fill="#003B71"/>
<path d="M54.1614 37.309C54.0206 37.3292 53.8797 37.3493 53.7389 37.3493C52.7329 37.3493 52.7128 36.6853 52.7128 36.4037V33.7881H52.0891V33.4059H52.7128V32.5005L53.1152 32.2389V33.4059H54.1413V33.7881H53.1152V36.2427C53.1152 36.5043 53.1152 36.967 53.759 36.967C54.0005 36.967 54.0608 36.9268 54.1614 36.8865V37.309Z" fill="#003B71"/>
<path d="M54.946 31.6356H55.5496V32.2995H54.946V31.6356ZM55.0466 33.386H55.449V37.269H55.0466V33.386Z" fill="#003B71"/>
<path d="M56.5355 35.3174C56.5355 34.1907 57.0384 33.2854 58.1249 33.2854C59.2315 33.2854 59.7143 34.1907 59.7143 35.3174C59.7143 36.4441 59.2315 37.3294 58.1249 37.3294C57.0183 37.3495 56.5355 36.4441 56.5355 35.3174ZM58.1048 36.9471C58.9297 36.9471 59.2113 36.263 59.2113 35.3577C59.2113 34.4523 58.9297 33.6676 58.1048 33.6676C57.2799 33.6676 57.0183 34.4523 57.0183 35.3577C57.0183 36.2832 57.2598 36.9471 58.1048 36.9471Z" fill="#003B71"/>
<path d="M60.7404 33.386H61.1428V34.3316H61.1629C61.2836 33.9493 61.505 33.2854 62.4506 33.2854C62.6719 33.2854 63.4565 33.4061 63.4565 34.3919V37.269H63.0542V34.8144C63.0542 34.4121 63.0542 33.6878 62.3701 33.6878C61.686 33.6878 61.1428 34.7138 61.1428 35.7802V37.269H60.7404V33.386Z" fill="#003B71"/>
<path d="M67.2591 31.0521H67.6816V38.3554H67.2591V31.0521Z" fill="#003B71"/>
<path d="M74.0193 37.1484C74.0193 38.2348 73.5163 38.8787 72.3896 38.8787C71.8866 38.8787 71.5044 38.7781 71.3836 38.7579V38.3354C71.4641 38.3556 71.8062 38.4964 72.2488 38.4964C73.2346 38.4964 73.5968 38.1141 73.5968 37.1886V36.4643H73.5767C73.4962 36.7862 73.1944 37.2691 72.5103 37.2691C71.4038 37.2691 71.1422 36.3637 71.1422 35.3175C71.1422 34.3719 71.5044 33.3056 72.5103 33.3056C73.2145 33.3056 73.4962 33.7683 73.5767 34.1104H73.5968V33.3861H73.9992V37.1484H74.0193ZM72.5506 36.8667C73.2749 36.8667 73.5968 35.9613 73.5968 35.2773C73.5968 34.6133 73.295 33.6879 72.5506 33.6879C71.8464 33.6879 71.6452 34.6737 71.6452 35.3779C71.6452 35.901 71.7458 36.8667 72.5506 36.8667Z" fill="#003B71"/>
<path d="M75.3873 33.386H75.7897V34.1706H75.8098C75.9909 33.6878 76.3329 33.2854 77.0371 33.2854V33.728C75.9909 33.728 75.7897 34.9352 75.7897 35.6997V37.269H75.3873V33.386Z" fill="#003B71"/>
<path d="M77.6407 35.3174C77.6407 34.1907 78.1437 33.2854 79.2302 33.2854C80.3367 33.2854 80.8196 34.1907 80.8196 35.3174C80.8196 36.4441 80.3367 37.3294 79.2302 37.3294C78.1437 37.3495 77.6407 36.4441 77.6407 35.3174ZM79.2302 36.9471C80.0551 36.9471 80.3367 36.263 80.3367 35.3577C80.3367 34.4523 80.0551 33.6676 79.2302 33.6676C78.4053 33.6676 78.1437 34.4523 78.1437 35.3577C78.1437 36.2832 78.3852 36.9471 79.2302 36.9471Z" fill="#003B71"/>
<path d="M81.5439 33.3861H81.9866L82.7109 36.565H82.731L83.6967 33.3861H84.1192L85.085 36.565H85.1051L85.8294 33.3861H86.272L85.3666 37.2692H84.9039L83.9382 34.0903H83.918L82.9724 37.2692H82.5097L81.5439 33.3861Z" fill="#003B71"/>
<path d="M89.0082 37.309C88.8674 37.3292 88.7265 37.3493 88.5857 37.3493C87.5797 37.3493 87.5596 36.6853 87.5596 36.4037V33.7881H86.9359V33.4059H87.5596V32.5005L87.962 32.2389V33.4059H88.9881V33.7881H87.962V36.2427C87.962 36.5043 87.962 36.967 88.6058 36.967C88.8473 36.967 88.9076 36.9268 89.0082 36.8865V37.309Z" fill="#003B71"/>
<path d="M89.8734 31.6356H90.2757V34.3316H90.2959C90.4166 33.9493 90.6379 33.2854 91.5835 33.2854C91.8048 33.2854 92.6096 33.4061 92.6096 34.3919V37.269H92.2072V34.8144C92.2072 34.4121 92.2072 33.6878 91.5231 33.6878C90.8391 33.6878 90.2959 34.7138 90.2959 35.7802V37.269H89.8935V31.6356H89.8734Z" fill="#003B71"/>
<path d="M96.3921 31.0521H96.8146V38.3554H96.3921V31.0521Z" fill="#003B71"/>
<path d="M99.9934 33.3861H100.436L101.724 36.6455L102.85 33.3861H103.293L101.965 37.2692H101.522L99.9934 33.3861Z" fill="#003B71"/>
<path d="M103.977 31.6356H104.581V32.2995H103.977V31.6356ZM104.078 33.386H104.48V37.269H104.078V33.386Z" fill="#003B71"/>
<path d="M107.075 35.0961C107.478 35.2973 107.981 35.4784 107.981 36.1826C107.981 36.7459 107.679 37.3495 106.492 37.3495C106.13 37.3495 105.667 37.2489 105.466 37.1885V36.766C105.587 36.8063 106.049 36.9471 106.492 36.9471C107.176 36.9471 107.478 36.6453 107.478 36.2228C107.478 35.7601 107.035 35.5991 106.794 35.4784L106.472 35.3174C106.09 35.1364 105.506 34.9352 105.506 34.3115C105.506 33.728 105.868 33.2854 106.794 33.2854C107.236 33.2854 107.558 33.3658 107.739 33.4061V33.8286C107.599 33.7884 107.257 33.6676 106.834 33.6676C106.291 33.6676 106.009 33.9292 106.009 34.231C106.009 34.6334 106.432 34.7742 106.754 34.915L107.075 35.0961Z" fill="#003B71"/>
<path d="M108.806 31.6356H109.409V32.2995H108.806V31.6356ZM108.906 33.386H109.309V37.269H108.906V33.386Z" fill="#003B71"/>
<path d="M110.395 35.3174C110.395 34.1907 110.898 33.2854 111.985 33.2854C113.091 33.2854 113.574 34.1907 113.574 35.3174C113.574 36.4441 113.091 37.3294 111.985 37.3294C110.878 37.3495 110.395 36.4441 110.395 35.3174ZM111.965 36.9471C112.789 36.9471 113.071 36.263 113.071 35.3577C113.071 34.4523 112.789 33.6676 111.965 33.6676C111.14 33.6676 110.878 34.4523 110.878 35.3577C110.878 36.2832 111.14 36.9471 111.965 36.9471Z" fill="#003B71"/>
<path d="M114.62 33.386H115.023V34.3316H115.043C115.163 33.9493 115.385 33.2854 116.33 33.2854C116.552 33.2854 117.336 33.4061 117.336 34.3919V37.269H116.934V34.8144C116.934 34.4121 116.934 33.6878 116.25 33.6878C115.566 33.6878 115.023 34.7138 115.023 35.7802V37.269H114.62V33.386Z" fill="#003B71"/>
<path d="M43.6125 24.606L37.0649 16.6365L42.918 10.2378C44.5219 8.50168 45.7288 8.08832 47.3823 8.08832V7.46002H40.0742V8.08832C41.2646 8.08832 41.8929 8.33633 41.8929 8.78276C41.8929 9.0969 41.5126 9.5764 41.1323 9.97322L34.8328 16.9672V10.6677C34.8328 8.30327 35.8745 8.08832 37.5775 8.08832V7.46002H29.2939V8.08832C31.03 8.08832 32.0386 8.30327 32.0386 10.6677V25.2177C32.0386 27.5821 31.03 27.797 29.2939 27.797V28.4253H37.5775V27.797C35.8745 27.797 34.8328 27.5821 34.8328 25.2177V17.8765H34.899L40.8843 25.2839C41.5788 26.1271 41.9591 26.7058 41.9591 27.053C41.9591 27.5821 41.463 27.8136 40.1899 27.8136V28.4419H48.6885V27.8136C46.6052 27.8136 44.9683 26.2759 43.6125 24.606Z" fill="#003B71"/>
<path d="M75.4407 25.5814V18.4055C75.4407 15.479 75.1266 13.6437 71.7867 13.6437C68.6617 13.6437 67.2563 16.6364 66.8099 17.7938H66.7603V13.6437L61.9158 14.4043V14.9334C62.8252 14.9995 64.3132 15.0987 64.3132 16.9836V25.5814C64.3132 27.6316 63.2385 27.9127 61.9158 27.9127C61.2544 27.8796 59.8655 27.7804 59.8655 25.8955V13.6602L55.021 14.4208V14.9499C55.9635 15.016 57.4185 15.1152 57.4185 17.0001V21.3486C57.4185 24.209 55.6163 27.1687 53.5826 27.1687C51.9457 27.1687 51.0694 25.9451 51.0694 23.3327V13.6602L46.2249 14.4208V14.9499C47.1673 15.016 48.6223 15.1152 48.6223 17.0001V24.0272C48.6223 26.9537 50.0112 28.789 52.6566 28.789C56.0296 28.789 56.9721 26.0443 57.3854 25.0027H57.4516V28.4583H69.1908V27.9292C67.8681 27.9292 66.7934 27.6481 66.7934 25.5979V21.7289C66.7934 18.7362 69.0585 15.1814 70.9269 15.1814C73.0102 15.1814 73.0433 16.4049 73.0433 19.1165V25.5979C73.0433 27.6481 71.9686 27.9292 70.6458 27.9292V28.4583H77.8382V27.9292C76.5154 27.9127 75.4407 27.6151 75.4407 25.5814Z" fill="#003B71"/>
<path d="M84.2699 13.6437C79.7396 13.6437 77.8712 16.19 77.8712 20.7865C77.8712 26.0774 80.6159 28.7559 85.4935 28.7559C87.4114 28.7559 88.4861 28.4749 89.2467 28.1938V27.1852C88.6184 27.4993 87.7586 27.5985 87.0477 27.5985C81.7898 27.5985 80.5001 22.2084 80.5001 19.5629H89.6601V18.8685C89.6435 15.2144 87.0973 13.6437 84.2699 13.6437ZM80.4836 18.5213C80.4836 17.3639 81.4591 14.6854 83.8566 14.6854C86.2871 14.6854 86.8493 16.8513 86.8493 18.5213H80.4836Z" fill="#003B71"/>
<path d="M115.569 25.5813V18.4055C115.569 15.479 115.255 13.6437 111.948 13.6437C108.807 13.6437 107.385 16.6364 106.938 17.7938H106.872V6.55052L102.028 7.31109V7.84019C102.937 7.93939 104.425 8.02206 104.425 9.89043V24.6058C104.425 26.6561 103.4 27.086 102.292 27.3505C101.73 27.4828 101.135 27.5985 100.523 27.5985C96.1415 27.5985 93.5291 23.7626 93.5291 19.7613C93.5291 16.2726 95.166 14.6853 97.3154 14.6853C98.7704 14.6853 99.3326 15.3467 99.4814 16.0411C99.7294 17.0828 99.9774 18.0583 101.184 18.0583C102.011 18.0583 102.656 17.4961 102.656 16.5702C102.656 14.272 99.8617 13.6437 97.7122 13.6437C92.8677 13.6437 90.9167 16.5702 90.9167 20.7534C90.9167 25.631 93.3803 28.7559 98.9192 28.7559C99.6633 28.7559 100.292 28.7063 100.854 28.6236C102.061 28.4914 102.838 28.4418 105.566 28.4418H109.27V27.9127C107.947 27.9127 106.872 27.6316 106.872 25.5813V21.7454C106.872 18.7527 109.137 15.1648 110.989 15.1648C113.039 15.1648 113.106 16.3884 113.106 19.1V25.5813C113.106 27.6316 111.998 27.9127 110.708 27.9127V28.4418H117.95V27.9127C116.644 27.9127 115.569 27.6151 115.569 25.5813Z" fill="#003B71"/>
<path d="M11.5486 22.091C11.3876 21.9703 10.7035 21.5076 10.5023 21.3667C8.40992 22.8354 6.35774 25.0083 4.68783 26.5374C1.04621 29.8772 0 32.5934 0 32.5934V40.0174C2.83684 36.2551 5.93523 32.4525 9.09398 29.6559C11.448 27.5836 13.1581 26.5777 13.7416 25.8332C13.7818 25.793 13.8019 25.7528 13.822 25.6924C14.1842 24.9681 13.6209 23.5195 11.5486 22.091Z" fill="url(#paint0_linear_981_921)"/>
<path d="M0.663938 14.9889C1.04621 15.4718 1.62967 16.1156 2.47469 16.9606C2.7966 16.6387 3.13862 16.2162 3.54101 15.9144C6.35773 13.7214 7.48442 12.2929 7.48442 12.2929V6.15646C7.48442 6.15646 4.64758 9.13414 3.17887 10.3815C2.01194 11.3875 1.0462 12.0917 0.422502 12.9367C0.120711 13.4397 0.181072 14.4054 0.663938 14.9889Z" fill="url(#paint1_linear_981_921)"/>
<path d="M6.1565 15.7334C2.69596 18.7111 1.10653 21.0047 0.442588 21.8899C0.0603193 22.4533 0.261513 23.1172 0.442588 23.4995C0.462708 23.5598 0.502945 23.6001 0.523065 23.6604C0.865095 24.264 1.36808 24.9883 2.05214 25.5114C2.25334 25.6724 2.77644 26.0546 3.01787 26.2357C4.82862 23.9622 8.20868 21.3065 11.1059 18.8921C17.3429 13.7214 21.1052 8.59099 21.1052 8.59099V0C18.7714 4.80854 11.8503 10.8242 6.1565 15.7334Z" fill="url(#paint2_linear_981_921)"/>
<path d="M0.543248 23.6603C0.523128 23.6603 0.523128 23.6603 0.543248 23.6603C0.321934 23.2579 0.160981 22.9158 0.0805035 22.7146C0.0201453 23.0164 0.0201416 23.3383 0.0201416 23.6804V24.6461L0.543248 24.9077V23.6603Z" fill="url(#paint3_linear_981_921)"/>
<path d="M2.75634 26.0346C1.77049 25.2499 0.885238 24.264 0.543208 23.6605C0.523088 23.6001 0.482851 23.5599 0.462731 23.4995C0.261537 23.0971 0.0804622 22.4332 0.462731 21.89C0.261537 22.1515 0.160936 22.4332 0.100578 22.7148C0.0402197 23.0166 0.0402222 23.3386 0.0402222 23.6806V24.6463V28.4086C0.0402222 29.4951 0.16094 29.9981 0.764522 30.6218C1.34799 31.2656 2.2936 32.1911 3.541 33.0562C5.79437 34.6457 7.18262 36.7582 7.18262 36.7582V30.1389C5.97545 28.4489 4.10434 27.1009 2.75634 26.0346Z" fill="url(#paint4_linear_981_921)"/>
<path d="M0.442638 12.9167C0.402399 12.9569 0.38228 13.0173 0.342041 13.0575C0.36216 13.0173 0.382279 12.9972 0.422517 12.9569C0.422517 12.9368 0.422519 12.9368 0.442638 12.9167Z" fill="url(#paint5_linear_981_921)"/>
<path d="M11.1864 23.9621C6.88084 20.9844 4.16472 18.6103 2.49481 16.9605C1.6498 16.1356 1.06633 15.4717 0.684065 14.9888C0.201199 14.4053 0.140837 13.4396 0.422509 12.9567C0.40239 12.997 0.382271 13.0171 0.342033 13.0573C0.201197 13.2787 0.12072 13.5201 0.0603619 13.7414C3.68158e-06 14.003 0 14.2645 0 14.5261V15.4314V19.3748C0 19.8376 0.0201194 20.1796 0.100597 20.5015C0.201194 20.9039 0.40239 21.2057 0.7243 21.588C2.59541 23.8011 6.33762 26.819 11.448 30.4808C16.1157 33.8407 21.2461 42.7737 21.2461 42.7737V34.907C18.9927 31.2051 15.7133 27.0806 11.1864 23.9621Z" fill="url(#paint6_linear_981_921)"/>
<path d="M11.0858 14.5263C8.30932 12.4741 6.96132 11.0859 4.50675 8.93309C2.39422 7.10222 0 4.10443 0 4.10443V11.448C0.925493 14.0233 6.29738 18.4697 9.79816 20.8639C10.2408 21.1657 10.6432 21.4474 11.0053 21.6888C11.2065 21.8296 11.3876 21.9504 11.5486 22.0711C13.6209 23.4995 14.1842 24.9481 13.822 25.6926C14.0232 25.3505 14.0836 24.928 14.0836 24.4653V23.4794V21.4273V18.4697C14.1037 17.7856 13.8623 16.5785 11.0858 14.5263Z" fill="url(#paint7_linear_981_921)"/>
<defs>
<linearGradient id="paint0_linear_981_921" x1="14.096" y1="30.696" x2="0.00281743" y2="30.696" gradientUnits="userSpaceOnUse">
<stop offset="0.3331" stop-color="#7A0511"/>
<stop offset="0.8519" stop-color="#BE1E2D"/>
</linearGradient>
<linearGradient id="paint1_linear_981_921" x1="0.00277195" y1="11.5559" x2="7.47951" y2="11.5559" gradientUnits="userSpaceOnUse">
<stop stop-color="#003B71"/>
<stop offset="0.3061" stop-color="#003B71"/>
<stop offset="1" stop-color="#49719A"/>
</linearGradient>
<linearGradient id="paint2_linear_981_921" x1="0.0027576" y1="13.1209" x2="21.111" y2="13.1209" gradientUnits="userSpaceOnUse">
<stop stop-color="#004B25"/>
<stop offset="0.3963" stop-color="#006734"/>
<stop offset="0.8005" stop-color="#39B54A"/>
</linearGradient>
<linearGradient id="paint3_linear_981_921" x1="0.00283886" y1="23.8073" x2="7.14958" y2="23.8073" gradientUnits="userSpaceOnUse">
<stop stop-color="#39B54A"/>
<stop offset="1" stop-color="#006838"/>
</linearGradient>
<linearGradient id="paint4_linear_981_921" x1="0.00280005" y1="29.3237" x2="6.9245" y2="29.3237" gradientUnits="userSpaceOnUse">
<stop stop-color="#39B54A"/>
<stop offset="1" stop-color="#006838"/>
</linearGradient>
<linearGradient id="paint5_linear_981_921" x1="0.00270689" y1="12.9852" x2="21.2508" y2="12.9852" gradientUnits="userSpaceOnUse">
<stop stop-color="#006E9F"/>
<stop offset="0.3925" stop-color="#004071"/>
<stop offset="0.7144" stop-color="#004071"/>
<stop offset="1" stop-color="#006E9F"/>
</linearGradient>
<linearGradient id="paint6_linear_981_921" x1="0.00281672" y1="27.8719" x2="21.7639" y2="27.8719" gradientUnits="userSpaceOnUse">
<stop stop-color="#49719A"/>
<stop offset="0.2559" stop-color="#003B71"/>
<stop offset="0.7144" stop-color="#003B71"/>
<stop offset="1" stop-color="#49719A"/>
</linearGradient>
<linearGradient id="paint7_linear_981_921" x1="-0.0920665" y1="14.9064" x2="12.1322" y2="14.9064" gradientUnits="userSpaceOnUse">
<stop stop-color="#7A0511"/>
<stop offset="0.5" stop-color="#BE1E2D"/>
</linearGradient>
</defs>
</svg>
