<svg width="1440" height="150" viewBox="0 0 1440 150" fill="none" xmlns="http://www.w3.org/2000/svg">
<path d="M-149.4 36.6575C-78.5 17.1575 -5.40003 5.95749 68 2.55749C141.8 -0.842511 217.4 3.25749 291.5 3.15749C350.6 3.15749 414.2 2.25749 469.4 26.3575C523 49.7575 569.2 88.3575 625 107.057C632 109.457 639.2 111.457 646.4 113.057C762.3 137.957 887.3 146.257 1004.3 123.157C1064.4 111.257 1117.8 78.1575 1176.5 61.4575C1206 53.0575 1238.3 48.0575 1268.9 52.4575C1299.7 56.8575 1327.5 72.9575 1357.9 79.6575C1413.1 91.8575 1474.2 72.7575 1512.5 31.1575C1514.9 28.5575 1517.4 24.5575 1515.3 21.6575C1513.2 18.7575 1508 24.4575 1511.6 24.9575" stroke="#D6EFFB" stroke-width="1.5" stroke-miterlimit="10"/>
<path d="M-149.1 42.6575C-120.1 36.3575 -90.6 31.0575 -60.8 26.5575C-17.8 20.1575 25.8 15.6575 69.4 13.7575C143.7 10.4575 219.8 13.9575 294.2 12.4575C314.5 12.0575 335.2 11.3575 355.9 11.4575C395.6 11.7575 436.3 15.6575 472.8 29.0575C474.9 29.8575 477 30.6575 479 31.4575C530.6 51.2575 576.4 83.5575 630.4 99.6575C637.5 101.758 644.7 103.558 652 105.058C683 111.058 714.7 116.158 746.8 120.258C835.1 131.558 925.4 134.658 1011.6 120.558C1070.6 110.858 1123.4 80.7575 1181.2 65.7575C1210.2 58.2575 1241.9 53.7575 1272 57.8575C1302.3 62.0575 1329.8 76.8575 1359.7 83.0575C1414.5 94.2575 1475.6 75.7575 1513.6 34.3575C1516 31.7575 1518.4 27.8575 1516.6 24.9575C1514.8 22.0575 1510.1 27.2575 1513.5 27.4575" stroke="#D6EFFB" stroke-width="1.5" stroke-miterlimit="10"/>
<path d="M-148.7 48.5575C-119.7 43.9575 -90 39.8575 -60 36.2575C-16.7 31.0575 27.1 26.8575 71 24.9575C145.8 21.7575 222.4 24.7575 297.1 21.6575C317.5 20.7575 338.2 19.5575 358.9 19.0575C398.4 17.9575 439.6 20.8575 476.2 31.8575C478.3 32.4575 480.4 33.1575 482.5 33.7575C534.7 49.9575 581.4 77.9575 636 92.2575C643.2 94.1575 650.5 95.7575 657.8 96.9575C689 102.258 720.9 107.158 753.3 111.258C842.2 122.758 932.4 128.958 1019.1 117.758C1076.9 110.258 1129.2 83.0575 1186.1 69.8575C1214.7 63.2575 1245.7 59.2575 1275.3 63.1575C1305.1 67.0575 1332.3 80.7575 1361.6 86.2575C1416 96.3575 1477.2 78.6575 1514.8 37.2575C1517.2 34.6575 1519.6 30.8575 1518.1 27.9575C1516.6 25.1575 1512.4 29.6575 1515.6 29.6575" stroke="#D6EFFB" stroke-width="1.5" stroke-miterlimit="10"/>
<path d="M-148.4 54.5574C-119.3 51.5574 -89.5 48.7574 -59.3 45.8574C-15.8 41.7574 28.3 37.8574 72.4 36.0574C147.7 32.9574 224.9 35.4574 299.8 30.8574C320.3 29.5574 341 27.8574 361.7 26.5574C400.9 24.1574 442.8 25.9574 479.5 34.5574C481.6 35.0574 483.7 35.5574 485.8 36.0574C538.6 48.5574 586.3 72.4574 641.3 84.8574C648.6 86.4574 655.9 87.8574 663.3 88.9574C694.8 93.6574 726.8 98.1574 759.4 102.457C848.8 114.157 939.1 123.457 1026.2 115.157C1082.9 109.757 1134.6 85.6574 1190.5 74.1574C1218.7 68.4574 1249 65.0574 1278.1 68.6574C1307.3 72.3574 1334.2 84.8574 1363.1 89.7574C1417 98.9574 1478.3 81.8574 1515.5 40.5574C1517.9 37.9574 1520.3 34.2574 1519 31.4574C1517.8 28.6574 1514 32.5574 1517.1 32.4574" stroke="#D6EFFB" stroke-width="1.5" stroke-miterlimit="10"/>
<path d="M-148 60.4575C-118.8 59.1575 -88.9 57.4575 -58.5 55.5575C-14.8 52.6575 29.6 48.9575 74 47.2575C149.9 44.2575 227.5 46.2575 302.7 40.0575C323.3 38.3575 344.1 36.0575 364.8 34.0575C403.7 30.2575 446.3 31.0575 483.1 37.1575C485.2 37.5575 487.4 37.8575 489.5 38.2575C542.9 47.0575 591.6 66.7575 647 77.3575C654.3 78.7575 661.7 79.9575 669.2 80.8575C700.9 84.8575 733.2 89.0575 766 93.4575C856 105.357 946.2 117.657 1033.9 112.357C1089.4 108.957 1140.5 87.9575 1195.6 78.2575C1223.3 73.3575 1253.1 70.5575 1281.6 73.9575C1310.3 77.3575 1336.9 88.6575 1365.3 93.0575C1418.8 101.257 1480.2 84.8575 1517 43.6575C1519.3 41.0575 1521.7 37.4575 1520.8 34.6575C1519.9 31.9575 1516.6 35.2575 1519.5 34.8575" stroke="#D6EFFB" stroke-width="1.5" stroke-miterlimit="10"/>
<path d="M-147.7 66.4575C-118.5 66.7575 -88.4 66.3575 -57.8 65.2575C-13.8 63.5575 30.8 60.1575 75.4 58.4575C151.8 55.5575 230 57.0575 305.4 49.3575C326.1 47.2575 346.9 44.4575 367.6 41.6575C406.3 36.5575 449.5 36.2575 486.4 39.9575C488.6 40.1575 490.7 40.3575 492.8 40.5575C546.8 45.6575 596.5 61.1575 652.3 69.9575C659.7 71.0575 667.2 72.0575 674.7 72.8575C706.6 76.2575 739.1 80.1575 772.2 84.5575C862.7 96.6575 952.9 111.857 1041.1 109.657C1095.4 108.257 1146 90.4575 1200.2 82.5575C1227.5 78.5575 1256.6 76.2575 1284.6 79.4575C1312.8 82.6575 1339.1 92.7575 1367 96.4575C1420.1 103.557 1481.6 87.8575 1518 46.7575C1520.3 44.1575 1522.7 40.6575 1522 37.8575C1521.4 35.1575 1518.6 37.8575 1521.3 37.2575" stroke="#D6EFFB" stroke-width="1.5" stroke-miterlimit="10"/>
<path d="M-147.3 72.4574C-118.1 74.4574 -87.8 75.2574 -57 74.9574C-12.8 74.3574 32.2 71.2574 77 69.6574C153.9 66.8574 232.6 67.8574 308.3 58.6574C329.1 56.0574 349.9 52.7574 370.6 49.3574C409 42.9574 452.8 41.4574 489.9 42.7574C492.1 42.8574 494.2 42.8574 496.4 42.9574C551 44.0574 601.6 55.5574 657.8 62.4574C665.3 63.3574 672.8 64.1574 680.4 64.7574C712.5 67.4574 745.2 71.0574 778.6 75.6574C869.7 87.9574 959.8 109.757 1048.5 106.957C1101.6 105.257 1151.7 92.9574 1205 86.7574C1231.9 83.6574 1260.3 81.9574 1287.8 84.8574C1315.5 87.8574 1341.5 96.6574 1368.8 99.8574C1421.5 105.957 1483 90.9574 1519 49.9574C1521.3 47.3574 1523.6 43.9574 1523.2 41.1574C1522.9 38.5574 1520.6 40.6574 1523.1 39.7574" stroke="#D6EFFB" stroke-width="1.5" stroke-miterlimit="10"/>
<path d="M-147 78.3574C-117.7 81.9574 -87.3 84.0574 -56.3 84.5574C-11.8 85.1574 33.4 82.2574 78.5 80.7574C156 78.0574 235.1 78.5574 311.1 67.7574C332 64.7574 352.9 60.9574 373.6 56.7574C411.7 49.0574 456.2 46.4574 493.4 45.3574C495.6 45.2574 497.8 45.2574 499.9 45.1574C555.2 42.6574 606.8 50.0574 663.4 55.1574C670.9 55.7574 678.5 56.3574 686.2 56.8574C718.5 58.9574 751.4 62.2574 785.1 66.8574C876.7 79.4574 966.7 100.157 1056 104.357C1107.9 106.757 1157.5 95.4574 1209.8 91.0574C1236.2 88.8574 1264 87.6574 1291 90.3574C1318.1 93.0574 1343.8 100.757 1370.7 103.357C1423 108.457 1484.6 94.1574 1520.2 53.1574C1522.5 50.5574 1524.8 47.3574 1524.7 44.4574C1524.6 41.9574 1522.9 43.3574 1525.2 42.2574" stroke="#D6EFFB" stroke-width="1.5" stroke-miterlimit="10"/>
<path d="M-146.6 84.3575C-117.3 89.6575 -86.7 92.9575 -55.5 94.2575C-10.8 96.0575 34.7 93.4575 80 91.9575C158 89.3575 237.7 89.3575 313.9 77.0575C334.9 73.6575 355.8 69.2575 376.5 64.3575C414.4 55.3575 459.5 51.5575 496.7 48.0575C498.9 47.8575 501.1 47.6575 503.3 47.3575C559.2 41.0575 611.8 44.4575 668.8 47.5575C676.4 47.9575 684.1 48.3575 691.8 48.6575C724.3 50.0575 757.5 53.0575 791.4 57.7575C883.6 70.5575 973.5 93.9575 1063.3 101.358C1114 105.558 1163.1 97.6575 1214.5 94.9575C1240.5 93.6575 1267.6 93.0575 1294.1 95.4575C1320.7 97.9575 1346.1 104.358 1372.5 106.458C1424.3 110.458 1486.1 96.8575 1521.3 56.0575C1523.5 53.4575 1525.8 50.3575 1526 47.4575C1526.2 44.9575 1524.9 45.7575 1527.1 44.5575" stroke="#D6EFFB" stroke-width="1.5" stroke-miterlimit="10"/>
<path d="M-146.3 90.2574C-116.9 97.1574 -86.2 101.757 -54.9 103.857C-10 106.757 35.8 104.457 81.4 103.057C159.9 100.557 240.1 100.057 316.6 86.1574C337.7 82.3574 358.6 77.4574 379.3 71.8574C416.9 61.6574 462.7 56.5574 500 50.7574C502.2 50.4574 504.4 50.0574 506.6 49.6574C563.1 39.5574 616.7 38.8574 674.2 40.1574C681.9 40.3574 689.6 40.4574 697.4 40.6574C730.1 41.4574 763.5 44.1574 797.7 48.9574C890.5 61.9574 980.3 87.8574 1070.6 98.7574C1120.1 104.757 1168.7 100.157 1219.2 99.2574C1244.8 98.8574 1271.3 98.7574 1297.2 100.957C1323.3 103.157 1348.4 108.457 1374.2 109.857C1425.6 112.757 1487.4 99.9574 1522.2 59.1574C1524.4 56.5574 1526.6 53.5574 1527.2 50.6574C1527.7 48.2574 1526.9 48.4574 1528.9 46.9574" stroke="#D6EFFB" stroke-width="1.5" stroke-miterlimit="10"/>
<path d="M-145.9 96.2575C-116.5 104.857 -85.6 110.657 -54.1 113.557C-8.90002 117.657 37.1 115.657 82.9 114.157C161.9 111.757 242.7 110.757 319.4 95.3575C340.6 91.0575 361.6 85.6575 382.2 79.3575C419.6 67.8575 466 61.5575 503.4 53.4575C505.7 52.9575 507.9 52.4575 510.1 51.9575C567.2 37.9575 621.8 33.3575 679.7 32.7575C687.5 32.6575 695.3 32.6575 703.1 32.6575C736 32.7575 769.6 35.1575 804.1 40.0575C897.4 53.2575 987.2 81.6575 1078 96.0575C1126.3 103.757 1174.4 102.657 1223.9 103.457C1249 103.857 1274.9 104.357 1300.3 106.357C1325.8 108.357 1350.7 112.357 1376 113.257C1427 115.057 1488.9 103.057 1523.3 62.3575C1525.5 59.7575 1527.6 56.8575 1528.5 53.9575C1529.2 51.6575 1529 51.1575 1530.8 49.4575" stroke="#D6EFFB" stroke-width="1.5" stroke-miterlimit="10"/>
<path d="M-145.6 102.158C-116.1 112.358 -85.1 119.458 -53.4 123.158C-8.00004 128.358 38.3 126.658 84.4 125.258C164 122.958 245.2 121.458 322.2 104.458C343.5 99.7575 364.5 93.8575 385.2 86.7575C422.3 73.9575 469.4 66.4575 506.9 55.9575C509.2 55.3575 511.4 54.6575 513.6 53.9575C571.3 36.1575 626.8 27.4575 685.2 25.0575C693 24.7575 700.9 24.4575 708.8 24.3575C741.9 23.7575 775.7 25.9575 810.5 30.9575C904.4 44.3575 994.2 75.0575 1085.5 93.1575C1132.7 102.558 1180.2 104.858 1228.8 107.458C1253.5 108.758 1278.7 109.858 1303.6 111.558C1328.6 113.258 1353.2 116.058 1378 116.458C1428.6 117.158 1490.5 105.858 1524.6 65.2575C1526.7 62.6575 1528.9 59.8575 1530.1 56.9575C1531.1 54.6575 1531.4 53.6575 1533 51.6575" stroke="#D6EFFB" stroke-width="1.5" stroke-miterlimit="10"/>
<path d="M-145.2 108.157C-115.7 120.057 -84.5 128.357 -52.6 132.857C-6.90001 139.257 39.6 137.757 85.9 136.457C166 134.257 247.7 132.257 325 113.757C346.4 108.657 367.5 102.257 388.1 94.3575C425 80.3575 472.6 71.4575 510.3 58.7575C512.6 57.9575 514.8 57.1575 517.1 56.3575C575.4 34.5575 631.9 22.0575 690.7 17.7575C698.6 17.1575 706.5 16.7575 714.5 16.4575C747.9 15.2575 781.8 17.0575 816.9 22.1575C911.3 35.7575 1001.2 68.7575 1092.9 90.5575C1138.9 101.557 1185.9 107.457 1233.6 111.757C1257.9 113.957 1282.4 115.557 1306.9 117.057C1331.4 118.557 1355.6 120.057 1380 119.857C1430.2 119.457 1492.2 108.957 1525.8 68.4575C1527.9 65.8575 1530 63.1575 1531.5 60.3575C1532.7 58.1575 1533.6 56.4575 1535 54.3575" stroke="#D6EFFB" stroke-width="1.5" stroke-miterlimit="10"/>
<path d="M-144.9 114.157C-115.3 127.657 -84 137.257 -51.9 142.557C-6.00002 150.157 40.9 148.957 87.4 147.657C190.3 144.957 296 141.657 391 101.957C429.9 85.7574 481.8 75.4574 520.5 58.6574C620.4 15.2574 716.5 -2.34256 823.3 13.2574C918.3 27.1574 1008.3 62.1574 1100.3 87.8574C1191 113.257 1287.5 126.057 1381.8 123.257C1437.2 121.557 1507.8 109.757 1537 56.7575" stroke="#D6EFFB" stroke-width="1.5" stroke-miterlimit="10"/>
</svg>
