<svg width="163" height="160" viewBox="0 0 163 160" fill="none" xmlns="http://www.w3.org/2000/svg">
<mask id="mask0_383_2178" style="mask-type:alpha" maskUnits="userSpaceOnUse" x="0" y="0" width="163" height="160">
<rect width="163" height="160" fill="#E9F6FC"/>
</mask>
<g mask="url(#mask0_383_2178)">
<path d="M321.747 -478.768C284.701 -471.476 247.152 -459.646 232.097 -423.698C221.548 -398.687 223.953 -369.715 234.342 -344.108C263.682 -271.971 364.839 -226.111 269.659 -153.065C234.531 -126.196 189.255 -114.782 152.055 -90.7143C98.3831 -55.9384 49.8277 -7.67471 24.8679 49.842C-24.2304 163.226 31.4567 258.39 141.619 316.78C382.125 444.164 666.85 464.607 911.412 352.081C995.233 313.573 1116.44 233.229 1129.63 138.155C1141.37 53.0226 1061.21 -14.1342 998.386 -63.8276C917.949 -127.55 822.858 -170.604 727.701 -209.986C707.436 -218.391 685.748 -229.101 676.857 -248.197C657.159 -290.561 699.032 -330.526 704.532 -370.446C709.789 -409.049 697.326 -452.3 663.354 -477.594C618.122 -511.356 555.989 -501.607 503.605 -498.901C442.444 -495.547 381.478 -490.615 321.747 -478.768Z" stroke="#D6EFFB" stroke-width="2" stroke-miterlimit="10"/>
<path d="M338.135 -467.079C302.05 -460.34 262.046 -448.838 246.779 -413.689C245.818 -411.446 244.945 -409.152 244.212 -406.888C236.71 -383.219 242.403 -358.032 251.493 -334.544C277.796 -266.339 369.719 -222.688 280.504 -154.198C271.944 -147.686 262.858 -142.047 253.403 -136.965C225.985 -122.057 195.792 -111.49 169.708 -94.33C119.132 -60.9771 73.6553 -15.0465 50.565 39.7583C5.17057 147.585 59.0462 237.294 163.723 291.984C227.545 325.288 294.722 350.571 362.99 367.392C539.612 410.833 727.707 398.323 893.812 320.5C972.242 283.967 1084.89 208.442 1096.83 119.256C1098.82 104.695 1097.88 90.7523 1094.83 77.2516C1080.78 17.094 1022.12 -31.9296 974.029 -70.0867C897.66 -130.726 804.882 -171.172 715.173 -209.801C703.725 -214.782 692.013 -220.482 682.576 -228.208C676.156 -233.473 670.909 -239.617 667.552 -247.002C649.364 -287.574 689.244 -325.575 694.607 -363.779C699.57 -399.859 688.023 -440.209 656.592 -463.997C614.551 -495.758 556.881 -487.297 508.069 -485.06C451.041 -482.293 394.172 -477.519 338.135 -467.079Z" stroke="#D6EFFB" stroke-width="2" stroke-miterlimit="10" stroke-dasharray="8.54 8.54"/>
<path d="M354.521 -455.384C319.345 -449.118 276.974 -437.891 261.407 -403.591C260.446 -401.349 259.485 -399.107 258.788 -396.708C251.25 -372.61 259.92 -348.469 268.45 -324.862C291.856 -260.619 374.405 -219.147 291.242 -155.162C283.12 -148.953 274.559 -143.565 265.769 -138.763C240.013 -124.555 211.763 -114.185 187.342 -97.7253C139.952 -65.7435 97.553 -22.1461 76.3848 29.8651C34.7297 132.267 86.8113 216.306 185.861 267.326C246.459 298.495 310.305 321.804 374.842 337.088C541.459 376.512 720.36 363.047 876.349 288.894C949.353 254.202 1053.39 183.579 1064.25 100.384C1066.07 86.8439 1065.15 73.8116 1062.2 61.2729C1049.08 5.14159 994.556 -40.5321 949.705 -76.2062C877.456 -133.844 786.922 -171.386 702.713 -209.342C691.948 -214.256 680.919 -219.889 672.2 -227.415C666.184 -232.553 661.375 -238.437 658.317 -245.534C641.725 -284.262 679.612 -320.298 684.838 -356.787C689.56 -390.426 678.839 -427.925 649.899 -450.127C611.188 -479.915 557.93 -472.663 512.515 -470.999C459.636 -469.032 406.743 -464.6 354.521 -455.384Z" stroke="#D6EFFB" stroke-width="2" stroke-miterlimit="10" stroke-dasharray="8.08 8.08"/>
<path d="M370.997 -443.647C336.783 -437.933 291.956 -427.034 276.176 -393.532C275.128 -391.341 274.202 -388.966 273.469 -386.701C265.949 -362.252 277.509 -339.211 285.653 -315.381C306.268 -255.261 379.39 -215.888 302.086 -156.297C294.402 -150.39 286.418 -145.334 278.241 -140.731C254.182 -127.09 227.841 -117.05 205.134 -101.372C160.981 -70.8422 121.521 -29.5485 102.275 19.6693C64.3236 116.514 114.594 195.097 208.105 242.499C265.478 271.532 326.135 292.839 386.711 306.564C543.36 342.103 713.138 327.95 858.748 257.31C926.274 224.542 1021.85 158.789 1031.45 81.4822C1033.01 68.9111 1032.19 56.8407 1029.5 45.2347C1017.23 -6.78915 966.956 -49.2757 925.296 -82.3855C857.166 -137.021 768.876 -171.659 690.132 -209.077C679.997 -213.842 669.704 -219.489 661.616 -226.866C656.09 -231.826 651.597 -237.637 648.872 -244.311C633.877 -281.196 669.772 -315.267 674.826 -350.174C679.166 -381.342 669.5 -415.969 643.049 -436.585C607.669 -464.4 558.736 -458.408 516.893 -457.212C468.146 -455.833 419.455 -451.72 370.997 -443.647Z" stroke="#D6EFFB" stroke-width="2" stroke-miterlimit="10" stroke-dasharray="7.62 7.62"/>
<path d="M387.389 -431.963C354.048 -426.855 306.801 -416.15 290.808 -383.445C289.707 -381.173 288.746 -378.93 288.101 -376.613C280.51 -351.867 294.995 -329.791 302.754 -305.738C320.753 -249.639 384.219 -212.385 312.881 -157.352C305.685 -151.828 298.226 -147.024 290.574 -142.671C268.178 -129.73 243.728 -119.806 222.648 -104.961C181.645 -75.9355 145.263 -36.9749 127.939 9.44959C93.7801 100.789 142.204 173.784 230.177 217.567C284.377 244.383 341.652 263.798 398.497 275.985C545.228 307.558 705.744 292.747 841.169 225.509C903.303 194.716 990.318 133.784 998.76 62.4161C1000.15 50.8659 999.344 39.7056 996.807 28.9802C985.46 -19.0175 939.323 -58.1541 900.959 -88.8623C836.896 -140.416 750.954 -172.311 677.71 -209.057C668.259 -213.756 658.737 -219.283 651.227 -226.43C646.104 -231.264 642.049 -236.815 639.623 -243.201C626.172 -278.161 660.179 -310.43 664.956 -343.592C669.054 -372.319 660.252 -403.963 636.255 -423.125C604.153 -448.887 559.684 -444.184 521.238 -443.562C476.747 -442.583 432.083 -438.895 387.389 -431.963Z" stroke="#D6EFFB" stroke-width="2" stroke-miterlimit="10" stroke-dasharray="7.15 7.15"/>
<path d="M403.917 -420.302C371.537 -415.747 321.833 -405.368 305.663 -373.328C304.562 -371.056 303.601 -368.813 302.815 -366.466C295.189 -341.288 312.705 -320.34 319.938 -296.034C335.425 -244.119 389.13 -208.822 323.844 -158.293C317.087 -153.073 310.065 -148.571 303.165 -144.446C282.379 -132.124 259.925 -122.478 240.508 -108.333C202.689 -80.6787 169.386 -44.0512 153.897 -0.471919C123.389 85.3912 170.055 152.849 252.401 192.962C303.289 217.591 357.322 235.085 410.348 245.683C547.11 273.371 698.469 257.738 823.602 194.065C880.258 165.195 958.715 109.082 966.081 43.7067C967.294 33.1773 966.51 22.9271 964.132 13.0824C953.65 -30.8076 911.65 -66.5943 876.583 -94.9009C816.535 -143.29 732.993 -172.525 665.197 -208.519C656.341 -213.202 647.642 -218.692 640.799 -225.557C636.219 -230.294 632.462 -235.556 630.334 -241.654C618.392 -274.822 650.495 -305.075 655.099 -336.654C658.904 -362.858 650.981 -391.734 629.614 -409.339C600.791 -433.047 560.699 -429.686 525.825 -429.533C485.431 -429.275 444.707 -426.062 403.917 -420.302Z" stroke="#D6EFFB" stroke-width="2" stroke-miterlimit="10" stroke-dasharray="6.69 6.69"/>
<path d="M420.308 -408.612C388.942 -404.692 336.676 -394.478 320.345 -363.316C319.156 -361.095 318.195 -358.852 317.497 -356.453C309.887 -330.925 330.382 -311.024 337.09 -286.465C350.205 -238.763 394.008 -205.394 334.636 -159.341C328.315 -154.423 321.871 -150.253 315.584 -146.327C296.46 -134.706 275.949 -125.256 258.195 -111.811C223.527 -85.6614 193.302 -51.3672 179.683 -10.5001C152.968 69.857 197.788 131.726 274.595 168.22C322.31 190.632 373.014 206.152 422.203 215.375C549.048 239.097 691.231 222.856 806.09 162.534C857.355 135.64 927.254 84.3479 933.367 24.8609C934.319 15.3005 933.641 6.01244 931.51 -2.89955C921.891 -42.6814 884.083 -75.1993 852.259 -101.023C796.279 -146.329 714.997 -172.874 652.702 -208.196C644.529 -212.812 636.601 -218.183 630.388 -224.899C626.212 -229.511 622.893 -234.514 621.063 -240.322C610.719 -271.647 640.828 -299.935 645.296 -329.799C648.859 -353.561 641.799 -379.454 622.886 -395.605C597.395 -417.341 561.715 -415.188 530.238 -415.608C494.082 -416.1 457.334 -413.23 420.308 -408.612Z" stroke="#D6EFFB" stroke-width="2" stroke-miterlimit="10" stroke-dasharray="6.23 6.23"/>
<path d="M430.814 -391.345C400.372 -388.117 345.895 -378.4 329.828 -348.488C328.678 -346.306 327.704 -344.022 327.099 -341.745C319.958 -316.314 343.679 -297.809 350.297 -273.414C361.946 -230.683 396.177 -199.765 343.661 -158.927C337.908 -154.476 332.004 -150.549 326.356 -147.023C309.12 -136.174 290.672 -127.227 274.762 -114.847C243.705 -90.5205 217.024 -59.1818 205.991 -21.7681C184.285 51.7348 228.294 107.229 300.208 139.534C345.065 159.509 392.777 172.922 438.291 180.471C555.544 200.084 688.254 183.523 792.043 127.726C837.491 103.277 898.033 57.6576 902.044 5.02805C902.724 -3.44503 901.868 -11.6009 899.754 -19.4973C890.335 -54.703 856.286 -83.4359 827.239 -106.327C774.624 -147.962 695.252 -171.437 637.786 -205.474C630.215 -209.952 622.875 -215.173 617.265 -221.584C613.412 -225.996 610.499 -230.742 608.768 -236.009C599.503 -264.997 627.166 -290.845 630.915 -318.561C633.724 -339.487 627.227 -362.171 610.633 -376.453C588.07 -395.822 556.774 -395.056 528.759 -396.008C496.709 -397.101 463.986 -394.86 430.814 -391.345Z" stroke="#D6EFFB" stroke-width="2" stroke-miterlimit="10" stroke-dasharray="5.76 5.76"/>
<path d="M447.741 -380.014C418.16 -377.378 361.253 -367.849 344.956 -338.718C343.716 -336.587 342.743 -334.302 342.086 -331.944C334.826 -306.137 361.789 -288.717 367.745 -264.042C377.224 -225.509 401.286 -196.517 354.603 -160.069C349.281 -155.914 343.949 -152.313 338.91 -148.98C323.323 -138.817 306.815 -130.06 292.555 -118.364C264.708 -95.4598 241.063 -66.4083 231.813 -31.787C213.75 36.3934 255.762 86.4732 322.036 115.083C363.58 133.035 407.979 144.424 449.646 150.404C556.825 166.053 680.442 148.93 773.969 96.4889C814.061 73.9725 865.902 33.0564 868.994 -13.7669C869.519 -21.237 868.697 -28.4986 866.795 -35.3982C858.315 -66.5665 828.515 -92.0826 802.897 -112.559C754.405 -151.161 677.337 -171.986 625.385 -205.359C618.41 -209.822 611.843 -214.925 606.868 -221.19C603.509 -225.427 600.95 -229.969 599.523 -234.952C591.839 -262.048 617.595 -286.049 621.202 -312.213C623.763 -330.66 618.283 -350.572 604.12 -363.343C584.923 -380.77 557.969 -381.107 533.481 -382.648C505.731 -384.211 477.043 -382.592 447.741 -380.014Z" stroke="#D6EFFB" stroke-width="2" stroke-miterlimit="10" stroke-dasharray="5.31 5.31"/>
<path d="M464.578 -368.736C435.909 -366.773 376.482 -357.483 360.043 -329.08C358.753 -326.869 357.83 -324.664 357.173 -322.305C349.933 -296.15 379.911 -279.837 385.343 -254.911C392.794 -220.607 406.494 -193.429 365.784 -161.402C360.895 -157.544 356.083 -154.188 351.565 -151.101C337.665 -141.492 323.008 -132.976 310.449 -122.046C285.725 -100.615 265.066 -73.7716 257.689 -41.8922C243.231 20.8328 283.336 65.5479 344.058 90.5135C382.39 106.282 423.426 115.726 461.283 120.269C558.475 132.005 672.998 114.32 756.222 65.1048C790.906 44.6027 834.323 8.33436 836.356 -32.6519C836.636 -39.1699 835.887 -45.4058 834.211 -51.5196C826.668 -78.6494 801.119 -100.948 778.789 -118.98C734.471 -154.628 659.797 -172.752 613.257 -205.302C606.967 -209.698 601.225 -214.764 596.832 -220.803C593.879 -224.916 591.764 -229.203 590.641 -233.903C584.499 -259.238 608.388 -281.261 611.889 -305.741C614.251 -321.788 609.687 -338.767 598.094 -350.056C582.214 -365.461 559.704 -367.062 538.604 -369.164C514.802 -371.401 490.059 -370.458 464.578 -368.736Z" stroke="#D6EFFB" stroke-width="2" stroke-miterlimit="10" stroke-dasharray="4.84 4.84"/>
</g>
</svg>
