<svg width="80" height="80" viewBox="0 0 80 80" fill="none" xmlns="http://www.w3.org/2000/svg">
<circle cx="40" cy="40" r="40" fill="#D6EFFB"/>
<path d="M26.334 53.3333C26.334 50.5044 27.4578 47.7913 29.4582 45.7909C31.4586 43.7905 34.1717 42.6667 37.0007 42.6667C39.8296 42.6667 42.5427 43.7905 44.5431 45.7909C46.5435 47.7913 47.6673 50.5044 47.6673 53.3333H45.0007C45.0007 51.2116 44.1578 49.1768 42.6575 47.6765C41.1572 46.1762 39.1224 45.3333 37.0007 45.3333C34.8789 45.3333 32.8441 46.1762 31.3438 47.6765C29.8435 49.1768 29.0007 51.2116 29.0007 53.3333H26.334ZM37.0007 41.3333C32.5807 41.3333 29.0007 37.7533 29.0007 33.3333C29.0007 28.9133 32.5807 25.3333 37.0007 25.3333C41.4207 25.3333 45.0007 28.9133 45.0007 33.3333C45.0007 37.7533 41.4207 41.3333 37.0007 41.3333ZM37.0007 38.6667C39.9473 38.6667 42.334 36.28 42.334 33.3333C42.334 30.3867 39.9473 28 37.0007 28C34.054 28 31.6673 30.3867 31.6673 33.3333C31.6673 36.28 34.054 38.6667 37.0007 38.6667ZM53.7313 25.0453C55.0089 27.6211 55.6716 30.4581 55.6673 33.3333C55.6673 36.3107 54.97 39.1253 53.7313 41.6213L51.538 40.0267C52.5049 37.928 53.004 35.6441 53.0006 33.3333C53.0006 30.944 52.4767 28.676 51.538 26.64L53.7313 25.0453ZM49.3286 28.2453C49.9946 29.8589 50.3362 31.5878 50.334 33.3333C50.3362 35.0789 49.9946 36.8078 49.3286 38.4213L47.0926 36.7947C47.4742 35.6806 47.6684 34.511 47.6673 33.3333C47.6688 32.1558 47.4751 30.9862 47.094 29.872L49.3286 28.2453Z" fill="#071B3D"/>
</svg>
