<svg width="80" height="80" viewBox="0 0 80 80" fill="none" xmlns="http://www.w3.org/2000/svg">
<circle cx="40" cy="40" r="40" fill="#D6EFFB"/>
<path d="M38.6667 26.6667C44.0907 26.6667 48.568 30.7147 49.2453 35.9534L52.2453 40.672C52.4427 40.9827 52.4027 41.4454 51.9453 41.6427L49.3333 42.76V46.6667C49.3333 48.14 48.14 49.3334 46.6667 49.3334H44.0013L44 53.3334H32V48.408C32 46.8347 31.4187 45.3454 30.3413 44.0014C28.876 42.1747 28 39.856 28 37.3334C28 31.4427 32.776 26.6667 38.6667 26.6667ZM38.6667 29.3334C34.248 29.3334 30.6667 32.9147 30.6667 37.3334C30.6667 39.18 31.2907 40.924 32.4213 42.3334C33.88 44.152 34.6667 46.2227 34.6667 48.408V50.6667H41.3333L41.336 46.6667H46.6667V41.0027L48.7333 40.1174L46.676 36.884L46.6 36.2947C46.088 32.3347 42.6987 29.3334 38.6667 29.3334ZM37.96 34.3507L38.6667 35.0574L39.3733 34.3507C40.2853 33.4387 41.7627 33.4387 42.6733 34.3507C43.5853 35.2614 43.5853 36.7387 42.6733 37.6494L38.6667 41.6574L34.66 37.6494C33.748 36.7387 33.748 35.2614 34.66 34.3507C35.5707 33.4387 37.048 33.4387 37.96 34.3507Z" fill="#071B3D"/>
</svg>
