<svg width="80" height="80" viewBox="0 0 80 80" fill="none" xmlns="http://www.w3.org/2000/svg">
<circle cx="40" cy="40" r="40" fill="#D6EFFB"/>
<path d="M48.0001 46.6667V53.3334H45.3335V46.6667C45.3335 40.732 48.8588 35.62 53.9295 33.312L55.0335 35.7387C52.9358 36.6928 51.1571 38.2306 49.9099 40.1684C48.6627 42.1063 47.9997 44.3622 48.0001 46.6667ZM34.6668 46.6667V53.3334H32.0001V46.6667C32.0003 44.3624 31.3372 42.1068 30.09 40.1692C28.8429 38.2316 27.0643 36.694 24.9668 35.74L26.0708 33.312C28.6344 34.478 30.8081 36.3573 32.3324 38.7254C33.8567 41.0935 34.6671 43.8504 34.6668 46.6667ZM40.0001 40C38.232 40 36.5363 39.2976 35.2861 38.0474C34.0358 36.7972 33.3335 35.1015 33.3335 33.3334C33.3335 31.5652 34.0358 29.8696 35.2861 28.6193C36.5363 27.3691 38.232 26.6667 40.0001 26.6667C41.7682 26.6667 43.4639 27.3691 44.7142 28.6193C45.9644 29.8696 46.6668 31.5652 46.6668 33.3334C46.6668 35.1015 45.9644 36.7972 44.7142 38.0474C43.4639 39.2976 41.7682 40 40.0001 40ZM40.0001 37.3334C40.5254 37.3334 41.0456 37.2299 41.5309 37.0289C42.0162 36.8279 42.4571 36.5332 42.8286 36.1618C43.2 35.7903 43.4946 35.3494 43.6956 34.8641C43.8967 34.3788 44.0001 33.8586 44.0001 33.3334C44.0001 32.8081 43.8967 32.2879 43.6956 31.8026C43.4946 31.3173 43.2 30.8764 42.8286 30.5049C42.4571 30.1335 42.0162 29.8389 41.5309 29.6378C41.0456 29.4368 40.5254 29.3334 40.0001 29.3334C38.9393 29.3334 37.9218 29.7548 37.1717 30.5049C36.4216 31.2551 36.0001 32.2725 36.0001 33.3334C36.0001 34.3942 36.4216 35.4116 37.1717 36.1618C37.9218 36.9119 38.9393 37.3334 40.0001 37.3334Z" fill="#071B3D"/>
</svg>
