<svg width="165" height="127" viewBox="0 0 165 127" fill="none" xmlns="http://www.w3.org/2000/svg">
<path d="M18.5575 125.514C14.5232 127.936 10.7579 127.397 7.26161 123.9C4.03423 120.402 4.1687 116.904 7.66504 113.407C15.4645 105.873 20.978 99.6848 24.2054 94.8418C27.7017 89.7298 29.8533 84.2142 30.6601 78.295C31.198 73.1829 29.5844 70.6269 25.8191 70.6269C18.5575 70.6269 12.3716 67.5328 7.26161 61.3445C2.42054 54.8872 0 46.9501 0 37.5331C0 26.2328 3.22738 17.2195 9.68215 10.4931C16.1369 3.49772 24.6088 0 35.0978 0C45.5868 0 54.4621 3.90129 61.7237 11.7039C68.9853 19.2374 72.6161 29.596 72.6161 42.7797C72.6161 75.6044 54.5966 103.183 18.5575 125.514ZM111.345 125.514C107.311 127.936 103.545 127.397 100.049 123.9C96.8215 120.402 96.956 116.904 100.452 113.407C108.252 105.873 113.765 99.6848 116.993 94.8418C120.22 89.7298 122.237 84.2142 123.044 78.295C123.851 73.1829 122.372 70.6269 118.606 70.6269C111.345 70.6269 105.159 67.5328 100.049 61.3445C94.9389 55.1562 92.3839 47.2191 92.3839 37.5331C92.3839 26.2328 95.6112 17.2195 102.066 10.4931C108.521 3.49772 117.127 0 127.885 0C138.374 0 147.115 3.90129 154.108 11.7039C161.369 19.2374 165 29.596 165 42.7797C165 75.6044 147.115 103.183 111.345 125.514Z" fill="#33CC99"/>
</svg>
